<?xml version="1.0" encoding="utf-8"?>
<!-- Generator: Adobe Illustrator 27.0.1, SVG Export Plug-In . SVG Version: 6.00 Build 0)  -->
<svg version="1.1" id="Layer_1" xmlns="http://www.w3.org/2000/svg" xmlns:xlink="http://www.w3.org/1999/xlink" x="0px" y="0px"
	 viewBox="0 0 294.3 294.4" style="enable-background:new 0 0 294.3 294.4;" xml:space="preserve">
<style type="text/css">
	.st0{fill:#4C68FF;}
	.st1{fill:#0031FF;}
</style>
<g>
	<g>
		<path d="M49,147.2H0c0,39.3,15.3,76.3,43.1,104.1s64.8,43.1,104.1,43.1v-49C93,245.4,49,201.3,49,147.2z"/>
		<path class="st0" d="M294.3,147.2h-49c0-54.1-44-98.2-98.2-98.2V0c39.3,0,76.3,15.3,104.1,43.1S294.3,107.9,294.3,147.2z"/>
		<path class="st1" d="M245.3,294.4h49c0-39.3-15.3-76.3-43.1-104.1s-64.8-43.1-104.1-43.1v49C201.2,196.2,245.3,240.3,245.3,294.4z
			"/>
		<path class="st1" d="M49,0H0c0,39.3,15.3,76.3,43.1,104.1s64.8,43.1,104.1,43.1v-49C93,98.2,49,54.1,49,0z"/>
	</g>
</g>
</svg>
